%TF.GenerationSoftware,KiCad,Pcbnew,8.0.2*%
%TF.CreationDate,2024-06-17T23:35:22+07:00*%
%TF.ProjectId,Lamp_Circuit,4c616d70-5f43-4697-9263-7569742e6b69,rev?*%
%TF.SameCoordinates,Original*%
%TF.FileFunction,Copper,L2,Bot*%
%TF.FilePolarity,Positive*%
%FSLAX46Y46*%
G04 Gerber Fmt 4.6, Leading zero omitted, Abs format (unit mm)*
G04 Created by KiCad (PCBNEW 8.0.2) date 2024-06-17 23:35:22*
%MOMM*%
%LPD*%
G01*
G04 APERTURE LIST*
G04 Aperture macros list*
%AMRoundRect*
0 Rectangle with rounded corners*
0 $1 Rounding radius*
0 $2 $3 $4 $5 $6 $7 $8 $9 X,Y pos of 4 corners*
0 Add a 4 corners polygon primitive as box body*
4,1,4,$2,$3,$4,$5,$6,$7,$8,$9,$2,$3,0*
0 Add four circle primitives for the rounded corners*
1,1,$1+$1,$2,$3*
1,1,$1+$1,$4,$5*
1,1,$1+$1,$6,$7*
1,1,$1+$1,$8,$9*
0 Add four rect primitives between the rounded corners*
20,1,$1+$1,$2,$3,$4,$5,0*
20,1,$1+$1,$4,$5,$6,$7,0*
20,1,$1+$1,$6,$7,$8,$9,0*
20,1,$1+$1,$8,$9,$2,$3,0*%
G04 Aperture macros list end*
%TA.AperFunction,EtchedComponent*%
%ADD10C,2.000000*%
%TD*%
%TA.AperFunction,ComponentPad*%
%ADD11C,6.400000*%
%TD*%
%TA.AperFunction,SMDPad,CuDef*%
%ADD12RoundRect,0.625000X0.625000X1.375000X-0.625000X1.375000X-0.625000X-1.375000X0.625000X-1.375000X0*%
%TD*%
%TA.AperFunction,ComponentPad*%
%ADD13C,4.800000*%
%TD*%
%TA.AperFunction,ComponentPad*%
%ADD14C,6.500000*%
%TD*%
%TA.AperFunction,Conductor*%
%ADD15C,2.000000*%
%TD*%
%TA.AperFunction,Conductor*%
%ADD16C,1.000000*%
%TD*%
G04 APERTURE END LIST*
D10*
%TO.C,LA1*%
X175550001Y-98449999D02*
G75*
G02*
X175550001Y-89550001I4449995J4449999D01*
G01*
X184475637Y-89575221D02*
G75*
G02*
X184500000Y-98400000I-4475639J-4424779D01*
G01*
%TD*%
D11*
%TO.P,H2,1*%
%TO.N,N/C*%
X201000000Y-54000000D03*
%TD*%
%TO.P,H3,1*%
%TO.N,N/C*%
X104000000Y-120000000D03*
%TD*%
%TO.P,H1,1*%
%TO.N,N/C*%
X201000000Y-120000000D03*
%TD*%
D12*
%TO.P,LA1,1,-*%
%TO.N,Net-(LA1--)*%
X180000000Y-102500000D03*
%TO.P,LA1,2,+*%
%TO.N,Net-(A1--)*%
X180000000Y-85500000D03*
%TD*%
D13*
%TO.P,MES1,1,-*%
%TO.N,Net-(LA1--)*%
X126000000Y-106500000D03*
%TO.P,MES1,2,+*%
%TO.N,Net-(A1-+)*%
X126000000Y-81500000D03*
%TD*%
%TO.P,MES2,1,-*%
%TO.N,Net-(LA1--)*%
X196475000Y-106500000D03*
%TO.P,MES2,2,+*%
%TO.N,Net-(A1--)*%
X196475000Y-81500000D03*
%TD*%
%TO.P,A1,1,-*%
%TO.N,Net-(A1--)*%
X165000000Y-72000000D03*
%TO.P,A1,2,+*%
%TO.N,Net-(A1-+)*%
X140000000Y-72000000D03*
%TD*%
D14*
%TO.P,V1,1*%
%TO.N,Net-(A1-+)*%
X111000000Y-81500000D03*
%TO.P,V1,2*%
%TO.N,Net-(LA1--)*%
X111000000Y-106500000D03*
%TD*%
D11*
%TO.P,H4,1*%
%TO.N,N/C*%
X104000000Y-54000000D03*
%TD*%
D15*
%TO.N,Net-(A1-+)*%
X111000000Y-81500000D02*
X111000000Y-73750000D01*
X111000000Y-73750000D02*
X112750000Y-72000000D01*
X112750000Y-72000000D02*
X140000000Y-72000000D01*
D16*
X126000000Y-81500000D02*
X111000000Y-81500000D01*
D15*
%TO.N,Net-(A1--)*%
X165000000Y-72000000D02*
X178350000Y-72000000D01*
X180000000Y-81575000D02*
X180000000Y-85500000D01*
X180000000Y-73650000D02*
X180000000Y-81575000D01*
D16*
X180075000Y-81500000D02*
X180000000Y-81575000D01*
D15*
X178350000Y-72000000D02*
X180000000Y-73650000D01*
D16*
X196475000Y-81500000D02*
X180075000Y-81500000D01*
D15*
%TO.N,Net-(LA1--)*%
X180000000Y-112775000D02*
X177800000Y-114975000D01*
X177800000Y-114975000D02*
X112225000Y-114975000D01*
X112225000Y-114925000D02*
X111000000Y-113700000D01*
D16*
X196475000Y-106500000D02*
X180050000Y-106500000D01*
X180050000Y-106500000D02*
X180000000Y-106550000D01*
D15*
X180000000Y-102500000D02*
X180000000Y-106550000D01*
D16*
X126000000Y-106500000D02*
X111000000Y-106500000D01*
D15*
X180000000Y-106550000D02*
X180000000Y-112775000D01*
X111000000Y-113700000D02*
X111000000Y-106500000D01*
%TD*%
%TA.AperFunction,Conductor*%
%TO.N,Net-(A1-+)*%
G36*
X112420638Y-78576867D02*
G01*
X117493339Y-80996822D01*
X117499329Y-81003476D01*
X117500000Y-81007381D01*
X117500000Y-81992618D01*
X117496573Y-82000891D01*
X117493338Y-82003178D01*
X112420640Y-84423131D01*
X112411697Y-84423600D01*
X112405062Y-84417650D01*
X111001446Y-81505077D01*
X111000942Y-81496139D01*
X111001442Y-81494930D01*
X112405063Y-78582347D01*
X112411741Y-78576383D01*
X112420638Y-78576867D01*
G37*
%TD.AperFunction*%
%TD*%
%TA.AperFunction,Conductor*%
%TO.N,Net-(A1-+)*%
G36*
X112000194Y-75003427D02*
G01*
X112002862Y-75007555D01*
X113924349Y-80079848D01*
X113924075Y-80088799D01*
X113918487Y-80094533D01*
X111005079Y-81498552D01*
X110996139Y-81499057D01*
X110994921Y-81498552D01*
X108081512Y-80094533D01*
X108075546Y-80087854D01*
X108075649Y-80079849D01*
X109997138Y-75007554D01*
X110003273Y-75001033D01*
X110008079Y-75000000D01*
X111991921Y-75000000D01*
X112000194Y-75003427D01*
G37*
%TD.AperFunction*%
%TD*%
%TA.AperFunction,Conductor*%
%TO.N,Net-(A1--)*%
G36*
X165632790Y-69685445D02*
G01*
X169791821Y-70997419D01*
X169798679Y-71003176D01*
X169800000Y-71008577D01*
X169800000Y-72991422D01*
X169796573Y-72999695D01*
X169791820Y-73002580D01*
X165632818Y-74314546D01*
X165623897Y-74313767D01*
X165618140Y-74306908D01*
X165618008Y-74306457D01*
X164999813Y-72003029D01*
X164999813Y-71996970D01*
X165617999Y-69693575D01*
X165623452Y-69686476D01*
X165632331Y-69685311D01*
X165632790Y-69685445D01*
G37*
%TD.AperFunction*%
%TD*%
%TA.AperFunction,Conductor*%
%TO.N,Net-(LA1--)*%
G36*
X124805238Y-104430604D02*
G01*
X125997617Y-106494146D01*
X125998789Y-106503024D01*
X125997617Y-106505854D01*
X124805238Y-108569395D01*
X124798132Y-108574843D01*
X124790410Y-108574256D01*
X121207002Y-107003070D01*
X121200801Y-106996610D01*
X121200000Y-106992355D01*
X121200000Y-106007644D01*
X121203427Y-105999371D01*
X121206998Y-105996931D01*
X124790412Y-104425742D01*
X124799363Y-104425559D01*
X124805238Y-104430604D01*
G37*
%TD.AperFunction*%
%TD*%
%TA.AperFunction,Conductor*%
%TO.N,Net-(A1-+)*%
G36*
X124805238Y-79430604D02*
G01*
X125997617Y-81494146D01*
X125998789Y-81503024D01*
X125997617Y-81505854D01*
X124805238Y-83569395D01*
X124798132Y-83574843D01*
X124790410Y-83574256D01*
X121207002Y-82003070D01*
X121200801Y-81996610D01*
X121200000Y-81992355D01*
X121200000Y-81007644D01*
X121203427Y-80999371D01*
X121206998Y-80996931D01*
X124790412Y-79425742D01*
X124799363Y-79425559D01*
X124805238Y-79430604D01*
G37*
%TD.AperFunction*%
%TD*%
%TA.AperFunction,Conductor*%
%TO.N,Net-(LA1--)*%
G36*
X195280238Y-104430604D02*
G01*
X196472617Y-106494146D01*
X196473789Y-106503024D01*
X196472617Y-106505854D01*
X195280238Y-108569395D01*
X195273132Y-108574843D01*
X195265410Y-108574256D01*
X191682002Y-107003070D01*
X191675801Y-106996610D01*
X191675000Y-106992355D01*
X191675000Y-106007644D01*
X191678427Y-105999371D01*
X191681998Y-105996931D01*
X195265412Y-104425742D01*
X195274363Y-104425559D01*
X195280238Y-104430604D01*
G37*
%TD.AperFunction*%
%TD*%
%TA.AperFunction,Conductor*%
%TO.N,Net-(LA1--)*%
G36*
X112420638Y-103576867D02*
G01*
X117493339Y-105996822D01*
X117499329Y-106003476D01*
X117500000Y-106007381D01*
X117500000Y-106992618D01*
X117496573Y-107000891D01*
X117493338Y-107003178D01*
X112420640Y-109423131D01*
X112411697Y-109423600D01*
X112405062Y-109417650D01*
X111001446Y-106505077D01*
X111000942Y-106496139D01*
X111001442Y-106494930D01*
X112405063Y-103582347D01*
X112411741Y-103576383D01*
X112420638Y-103576867D01*
G37*
%TD.AperFunction*%
%TD*%
%TA.AperFunction,Conductor*%
%TO.N,Net-(A1--)*%
G36*
X195280238Y-79430604D02*
G01*
X196472617Y-81494146D01*
X196473789Y-81503024D01*
X196472617Y-81505854D01*
X195280238Y-83569395D01*
X195273132Y-83574843D01*
X195265410Y-83574256D01*
X191682002Y-82003070D01*
X191675801Y-81996610D01*
X191675000Y-81992355D01*
X191675000Y-81007644D01*
X191678427Y-80999371D01*
X191681998Y-80996931D01*
X195265412Y-79425742D01*
X195274363Y-79425559D01*
X195280238Y-79430604D01*
G37*
%TD.AperFunction*%
%TD*%
%TA.AperFunction,Conductor*%
%TO.N,Net-(LA1--)*%
G36*
X111005069Y-106501442D02*
G01*
X113058559Y-107491052D01*
X113918487Y-107905466D01*
X113924453Y-107912145D01*
X113924349Y-107920151D01*
X112002862Y-112992445D01*
X111996727Y-112998967D01*
X111991921Y-113000000D01*
X110008079Y-113000000D01*
X109999806Y-112996573D01*
X109997138Y-112992445D01*
X108075650Y-107920151D01*
X108075924Y-107911200D01*
X108081512Y-107905466D01*
X110994922Y-106501446D01*
X111003861Y-106500942D01*
X111005069Y-106501442D01*
G37*
%TD.AperFunction*%
%TD*%
%TA.AperFunction,Conductor*%
%TO.N,Net-(A1-+)*%
G36*
X139376102Y-69686232D02*
G01*
X139381859Y-69693091D01*
X139382001Y-69693578D01*
X140000186Y-71996967D01*
X140000186Y-72003033D01*
X139382001Y-74306421D01*
X139376547Y-74313523D01*
X139367668Y-74314688D01*
X139367181Y-74314546D01*
X135208180Y-73002580D01*
X135201321Y-72996823D01*
X135200000Y-72991422D01*
X135200000Y-71008577D01*
X135203427Y-71000304D01*
X135208177Y-70997420D01*
X139367183Y-69685453D01*
X139376102Y-69686232D01*
G37*
%TD.AperFunction*%
%TD*%
M02*
